<?xml version="1.0" encoding="UTF-8"?>
<!-- Generator: Adobe Illustrator 16.0.0, SVG Export Plug-In . SVG Version: 6.00 Build 0)  -->
<!DOCTYPE svg PUBLIC "-//W3C//DTD SVG 1.1//EN" "http://www.w3.org/Graphics/SVG/1.1/DTD/svg11.dtd">
<svg version="1.1" id="Layer_1" xmlns="http://www.w3.org/2000/svg" xmlns:xlink="http://www.w3.org/1999/xlink" x="0px" y="0px" width="108.499px" height="36.099px" viewBox="0 0 108.499 36.099" enable-background="new 0 0 108.499 36.099" xml:space="preserve">
<g>
	<defs>
		<rect id="SVGID_1_" width="108.499" height="36.099"/>
	</defs>
	<clipPath id="SVGID_2_">
		<use xlink:href="#SVGID_1_" overflow="visible"/>
	</clipPath>
	<path clip-path="url(#SVGID_2_)" d="M90.865,27.746h0.72c0.071-0.162,0.164-0.305,0.28-0.428c0.115-0.123,0.285-0.186,0.507-0.186   c0.116,0,0.446,0.104,0.995,0.307c0.547,0.203,1.061,0.307,1.542,0.307c1.138,0,2.104-0.334,2.896-1.004   c0.793-0.67,1.188-1.557,1.188-2.656c0-0.523-0.116-1.049-0.347-1.578c-0.232-0.527-0.496-0.977-0.789-1.35l-1.338-1.705   c-0.5-0.629-0.836-1.098-1.01-1.404c-0.174-0.306-0.261-0.619-0.261-0.938c0-0.364,0.118-0.697,0.354-0.999   c0.237-0.301,0.611-0.452,1.121-0.452s0.996,0.253,1.457,0.759c0.459,0.507,0.775,1.337,0.945,2.493l0.719,0.066l0.613-4.171   h-0.786c-0.089,0.188-0.187,0.329-0.293,0.427S99.113,15.38,98.9,15.38c-0.168,0-0.518-0.102-1.049-0.307   c-0.533-0.204-1.039-0.307-1.517-0.307c-1.171,0-2.099,0.329-2.78,0.985c-0.683,0.657-1.023,1.438-1.023,2.343   c0,0.639,0.154,1.278,0.466,1.917c0.312,0.641,0.688,1.199,1.133,1.678l1.013,1.266c0.328,0.408,0.614,0.828,0.859,1.264   c0.244,0.436,0.366,0.834,0.366,1.197c0,0.4-0.138,0.746-0.413,1.039c-0.275,0.291-0.645,0.438-1.105,0.438   c-0.533,0-1.076-0.27-1.625-0.812c-0.552-0.541-0.894-1.484-1.026-2.824l-0.72-0.053L90.865,27.746z M76.594,25.466   c0,0.871,0.29,1.488,0.871,1.854c0.348,0.23,0.749,0.346,1.203,0.346c0.934,0,1.844-0.443,2.732-1.332   c0.541-0.533,1.361-1.6,2.459-3.199l0.065,0.027c-0.258,0.809-0.423,1.367-0.493,1.672c-0.072,0.307-0.106,0.678-0.106,1.113   c0,0.453,0.098,0.816,0.295,1.092c0.29,0.41,0.808,0.613,1.552,0.613c0.846,0,1.664-0.348,2.459-1.045   c0.794-0.697,1.455-1.539,1.98-2.525l-0.572-0.346c-0.223,0.381-0.471,0.746-0.746,1.092c-0.48,0.621-0.863,0.932-1.146,0.932   c-0.125,0-0.229-0.047-0.313-0.139c-0.085-0.094-0.127-0.225-0.127-0.395c0-0.15,0.049-0.428,0.147-0.832   c0.097-0.404,0.213-0.842,0.346-1.312c0.066-0.24,0.263-0.961,0.589-2.164c0.325-1.205,0.51-1.877,0.552-2.02l1.04-3.785h-3.226   c-0.41,1.422-0.719,2.448-0.924,3.079c-0.312,0.95-0.666,1.883-1.063,2.797c-0.612,1.412-1.272,2.543-1.976,3.391   c-0.705,0.85-1.272,1.273-1.703,1.273c-0.2,0-0.356-0.055-0.467-0.16c-0.111-0.107-0.166-0.271-0.166-0.492   c0-0.23,0.062-0.588,0.186-1.066c0.08-0.32,0.15-0.578,0.213-0.773l1.314-4.197l1.238-4.17c-0.08,0-0.588,0.08-1.522,0.239   c-0.935,0.16-2.336,0.325-4.204,0.494v0.719c0.561,0.018,0.953,0.082,1.182,0.193c0.227,0.11,0.34,0.34,0.34,0.687   c0,0.168-0.016,0.337-0.047,0.506s-0.084,0.369-0.154,0.6l-1.42,5.184c-0.098,0.338-0.187,0.705-0.267,1.105   S76.594,25.236,76.594,25.466 M61.843,24.173c0,1.299,0.312,2.217,0.933,2.76c0.623,0.541,1.293,0.812,2.013,0.812   c0.799,0,1.526-0.254,2.179-0.76c0.653-0.506,1.219-1.123,1.699-1.852c0.213-0.311,0.37-0.547,0.473-0.707s0.135-0.221,0.1-0.186   c-0.231,0.896-0.346,1.461-0.346,1.691c0,0.605,0.194,1.062,0.586,1.373c0.391,0.311,0.795,0.467,1.213,0.467   c0.684,0,1.36-0.307,2.031-0.92c0.672-0.613,1.375-1.461,2.112-2.545l-0.573-0.412c-0.142,0.186-0.32,0.414-0.533,0.686   c-0.213,0.27-0.363,0.455-0.453,0.553c-0.186,0.223-0.354,0.393-0.506,0.514c-0.15,0.119-0.307,0.18-0.467,0.18   c-0.088,0-0.168-0.031-0.238-0.094c-0.072-0.062-0.107-0.174-0.107-0.334c0-0.391,0.12-1.043,0.359-1.957   c0.106-0.48,0.287-1.174,0.539-2.08l1.777-6.382l-2.849,0.199l-0.464,1.453c-0.15-0.587-0.323-1.004-0.519-1.253   c-0.327-0.409-0.839-0.613-1.53-0.613c-1.705,0-3.381,1.079-5.033,3.238C62.643,20.111,61.843,22.167,61.843,24.173 M70.686,17.392   c0,1.182-0.408,2.782-1.226,4.797c-1.144,2.406-2.169,3.607-3.073,3.598c-0.355,0-0.643-0.16-0.859-0.48   c-0.217-0.318-0.326-0.695-0.326-1.133c0-1.1,0.457-2.686,1.371-4.756c1.037-2.336,2.05-3.504,3.035-3.504   c0.461,0,0.775,0.204,0.944,0.613C70.641,16.748,70.686,17.037,70.686,17.392 M50.052,27.359c0.48-1.635,0.841-2.82,1.081-3.559   c0.435-1.277,0.874-2.332,1.317-3.158c0.433-0.816,1.012-1.664,1.737-2.544c0.725-0.879,1.357-1.318,1.897-1.318   c0.15,0,0.296,0.04,0.438,0.12s0.213,0.249,0.213,0.506c0,0.062-0.008,0.127-0.021,0.193s-0.028,0.132-0.047,0.193l-1.327,4.077   c-0.275,0.863-0.501,1.641-0.679,2.34c-0.178,0.697-0.267,1.246-0.267,1.645c0,0.621,0.184,1.078,0.55,1.365   c0.367,0.289,0.796,0.434,1.289,0.434c0.895,0,1.738-0.391,2.529-1.172c0.473-0.471,1.119-1.332,1.936-2.584l-0.6-0.414   c-0.418,0.621-0.746,1.088-0.986,1.398c-0.479,0.586-0.84,0.879-1.079,0.879c-0.115,0-0.218-0.041-0.306-0.125   c-0.09-0.086-0.134-0.199-0.134-0.34c0-0.045,0.013-0.125,0.04-0.24l1.822-5.65c0.258-0.789,0.418-1.328,0.48-1.612   c0.062-0.284,0.092-0.573,0.092-0.866c0-0.711-0.188-1.244-0.564-1.599c-0.377-0.356-0.884-0.533-1.521-0.533   c-0.84,0-1.625,0.297-2.355,0.893c-0.73,0.596-1.502,1.426-2.316,2.491c-0.363,0.472-0.635,0.832-0.816,1.08   c-0.182,0.248-0.228,0.328-0.139,0.24l-0.062-0.027l2.905-11.179c-1.519,0.275-2.515,0.446-2.988,0.513   c-0.473,0.067-1.367,0.167-2.68,0.301v0.719c0.622-0.018,1.062,0.018,1.32,0.106c0.257,0.091,0.386,0.339,0.386,0.748   c0,0.152-0.027,0.349-0.08,0.588c-0.053,0.241-0.102,0.446-0.147,0.615l-4.236,15.478H50.052z M33.021,24.173   c0,1.299,0.311,2.217,0.933,2.76c0.622,0.541,1.292,0.812,2.012,0.812c0.799,0,1.526-0.254,2.179-0.76   c0.652-0.506,1.219-1.123,1.699-1.852c0.213-0.311,0.37-0.547,0.473-0.707c0.102-0.16,0.135-0.221,0.099-0.186   c-0.231,0.896-0.346,1.461-0.346,1.691c0,0.605,0.195,1.062,0.586,1.373c0.391,0.311,0.795,0.467,1.213,0.467   c0.684,0,1.361-0.307,2.032-0.92s1.375-1.461,2.112-2.545l-0.573-0.412c-0.142,0.186-0.32,0.414-0.533,0.686   c-0.213,0.27-0.364,0.455-0.453,0.553c-0.186,0.223-0.355,0.393-0.506,0.514c-0.151,0.119-0.307,0.18-0.467,0.18   c-0.088,0-0.168-0.031-0.239-0.094c-0.072-0.062-0.107-0.174-0.107-0.334c0-0.391,0.12-1.043,0.36-1.957   c0.106-0.48,0.286-1.174,0.539-2.08l1.777-6.382l-2.849,0.199l-0.463,1.453c-0.151-0.587-0.324-1.004-0.519-1.253   c-0.328-0.409-0.839-0.613-1.531-0.613c-1.704,0-3.381,1.079-5.032,3.238C33.82,20.111,33.021,22.167,33.021,24.173 M41.863,17.392   c0,1.182-0.408,2.782-1.225,4.797c-1.144,2.406-2.169,3.607-3.074,3.598c-0.355,0-0.642-0.16-0.859-0.48   c-0.217-0.318-0.326-0.695-0.326-1.133c0-1.1,0.457-2.686,1.371-4.756c1.038-2.336,2.05-3.504,3.035-3.504   c0.461,0,0.776,0.204,0.945,0.613C41.819,16.748,41.863,17.037,41.863,17.392 M25.639,25.787c0,0.543,0.178,0.988,0.534,1.34   c0.356,0.35,0.801,0.525,1.335,0.525c0.926,0,1.803-0.398,2.631-1.199c0.489-0.48,1.139-1.332,1.949-2.557l-0.599-0.389   c-0.338,0.57-0.709,1.076-1.114,1.52c-0.404,0.445-0.735,0.668-0.993,0.668c-0.071,0-0.157-0.027-0.26-0.08   c-0.102-0.055-0.153-0.166-0.153-0.334c0-0.24,0.076-0.68,0.227-1.32c0.088-0.373,0.21-0.838,0.369-1.398l1.76-6.329h2.279v-1.12   h-1.958l1.083-3.957h-0.986c-0.735,1.199-1.648,2.181-2.741,2.944c-0.618,0.436-1.379,0.836-2.284,1.199v0.934h1.389l-2.028,7.407   c-0.178,0.641-0.295,1.111-0.353,1.414S25.639,25.599,25.639,25.787 M13.78,23.513c0,1.428,0.424,2.49,1.272,3.188   c0.849,0.697,1.753,1.045,2.712,1.045c1.288,0,2.412-0.426,3.371-1.279c0.604-0.533,1.248-1.373,1.932-2.518l-0.799-0.467   c-0.4,0.631-0.773,1.123-1.119,1.479c-0.649,0.676-1.302,1.012-1.959,1.012c-0.809,0-1.355-0.297-1.639-0.891   c-0.16-0.32-0.24-0.76-0.24-1.32c0-0.15,0.013-0.346,0.04-0.586s0.066-0.498,0.12-0.773c2.07-0.283,3.753-0.939,5.05-1.969   c1.297-1.027,1.945-2.119,1.945-3.272c0-0.762-0.277-1.353-0.832-1.77c-0.556-0.417-1.255-0.625-2.099-0.625   c-1.954,0-3.749,0.959-5.383,2.875C14.57,19.498,13.78,21.455,13.78,23.513 M21.988,16.777c0,0.788-0.329,1.687-0.986,2.699   c-0.658,1.01-1.772,1.691-3.345,2.047c0.48-1.854,1.028-3.293,1.646-4.321c0.617-1.028,1.246-1.542,1.885-1.542   c0.302,0,0.511,0.107,0.627,0.326C21.93,16.203,21.988,16.466,21.988,16.777 M0,26.132c0,0.312,0.382,0.658,1.146,1.041   c0.764,0.381,1.595,0.572,2.492,0.572c2.434,0,4.562-1.08,6.384-3.238c1.661-1.973,2.492-4.02,2.492-6.143   c0-1.172-0.281-2.061-0.841-2.665c-0.561-0.604-1.286-0.906-2.174-0.906c-0.726,0-1.404,0.191-2.032,0.575   c-0.628,0.383-1.22,0.963-1.776,1.739L8.039,8.31L5.201,8.777L2.377,9.123v0.72c0.667,0,1.118,0.044,1.353,0.133   c0.235,0.09,0.353,0.328,0.353,0.72c0,0.133-0.018,0.288-0.053,0.465c-0.036,0.178-0.093,0.413-0.173,0.706l-3.724,13.6   C0.044,25.849,0,26.072,0,26.132 M9.116,18.498c0,1.369-0.403,2.967-1.21,4.797c-1.014,2.32-2.245,3.479-3.693,3.479   c-0.382,0-0.629-0.088-0.74-0.26c-0.111-0.174-0.166-0.332-0.166-0.473c0-0.311,0.191-1.164,0.573-2.559   c0.382-1.395,0.697-2.439,0.946-3.133c0.296-0.834,0.618-1.541,0.968-2.117c0.646-1.058,1.318-1.585,2.017-1.585   c0.431,0,0.756,0.142,0.975,0.426C9.006,17.357,9.116,17.832,9.116,18.498"/>
	
		<line clip-path="url(#SVGID_2_)" fill="none" stroke="#000000" stroke-width="2.122" x1="107.438" y1="0" x2="107.438" y2="36.099"/>
</g>
</svg>