<?xml version="1.0" encoding="utf-8"?>
<!-- Generator: Adobe Illustrator 19.0.0, SVG Export Plug-In . SVG Version: 6.00 Build 0)  -->
<!DOCTYPE svg PUBLIC "-//W3C//DTD SVG 1.1//EN" "http://www.w3.org/Graphics/SVG/1.1/DTD/svg11.dtd">
<svg version="1.1" id="Layer_1" xmlns="http://www.w3.org/2000/svg" xmlns:xlink="http://www.w3.org/1999/xlink" x="0px" y="0px"
	 viewBox="0 0 200 52" enable-background="new 0 0 200 52" xml:space="preserve">
<g>
	<path fill="#000000" d="M18.9,37.1c-2.7,0-4.8-0.1-6.5-0.1l-1.3,0c-2-0.1-3.4-0.1-4.7-0.1l-0.3,0c-0.4,0-0.9,0-1.6,0
		c-0.9,0-1.9,0.1-2.7,0.1c-0.3,0-1.1,0-1.1-0.8c0-0.3,0.2-0.7,0.8-0.7c0.3,0,0.8-0.1,1.3-0.2c0.6-0.1,0.9-0.9,1-2.2
		C4,31.2,4,27.4,4,23v-8.2C4,7.6,4,6.3,4,4.8c-0.1-1.6-0.4-2-1.7-2.3C1.9,2.4,1.2,2.4,0.8,2.4C0.3,2.4,0,2.1,0,1.7C0,1,0.9,1,1.1,1
		C2.7,1,4.8,1,5.8,1.1l0.6,0c0.1,0,0.4,0,0.9,0C8.4,1,10.4,1,11.4,1c0.3,0,1.1,0,1.1,0.8c0,0.4-0.3,0.7-0.8,0.7
		c-0.3,0-0.9,0-1.5,0.1C9.3,2.7,8.9,3.2,8.8,4.8c-0.1,1.5-0.1,2.8-0.1,10v8.3c0,6.1,0.1,9.6,0.9,10.4c0.6,0.6,1.7,1,5.3,1
		c2.6,0,4.4-0.1,5.3-1.3c0.5-0.6,1-1.7,1.1-2.6c0.1-0.6,0.3-0.9,0.8-0.9c0.7,0,0.7,0.7,0.7,1.1c0,0.5-0.3,3.4-0.7,4.8
		C21.8,36.9,21.3,37.1,18.9,37.1"/>
	<path fill="#000000" d="M46.4,20.4L42,8.1l-4,12.3H46.4z M60.1,36.6c-0.7,0-4.1,0-7.3-0.1c-1.1-0.1-1.8-0.1-1.8-0.7
		c0-0.2,0.1-0.6,0.6-0.7c0.1-0.2,0.1-0.5,0-0.7l-4.3-11.4l-10.1,0l-2.9,8.3c-0.4,1.1-0.6,2.2-0.6,3c0,0.7,0.8,1,1.4,1h0.5
		c0.8,0,0.9,0.5,0.9,0.7c0,0.3-0.1,0.8-1.1,0.8c-0.7,0-1.7,0-2.5-0.1c-0.5,0-1-0.1-1.2-0.1c-0.2,0-0.5,0-1.1,0
		c-1.1,0-2.7,0.1-4.2,0.1c-0.3,0-1.3,0-1.3-0.8c0-0.4,0.3-0.7,0.8-0.7c0.3,0,0.9,0,1.3-0.1c1.8-0.2,2.7-1.7,3.6-4.1L41.4,2.1
		C42,0.5,42.2,0,42.8,0c0.6,0,0.8,0.5,1.4,1.9c0.2,0.5,1,2.5,2,5.3C48.8,13.9,53,25,55,30c1.6,3.9,2.8,4.7,3.7,4.9
		c0.7,0.2,1.3,0.3,1.8,0.3c0.7,0,0.9,0.4,0.9,0.7C61.4,36.2,61.1,36.6,60.1,36.6"/>
	<path fill="#000000" d="M81,37.6c-6.8,0-11.7-1.6-15.6-5.1c-3.8-3.4-5.8-8.2-5.8-14.1c0-3.7,1.4-9,5.3-13c3.4-3.4,8.2-5.1,14.5-5.1
		c1.1,0,4,0.1,6.8,0.6c1.8,0.3,3.3,0.6,4.7,0.7c0.7,0.1,1,0.4,1,0.9c0,0.2,0,0.3-0.1,0.6c0,0.4-0.1,1-0.2,2
		c-0.1,0.9-0.1,2.1-0.1,3.2c0,0.7,0,1.3,0,1.6c0,0.5-0.1,1.3-0.8,1.3c-0.8,0-0.8-0.8-0.8-1.4c0-1.7-0.7-3.5-1.8-4.4
		c-1.4-1.2-4.9-2.6-9.1-2.6C74.4,2.9,71,4,68.7,6.2c-3.6,3.4-4.1,7.9-4.1,11.9c0,8.2,6.1,16.6,16.4,16.6c2.9,0,5.9-0.3,7.8-2.2
		c0.9-1,1.5-2.9,1.6-3.7c0.1-0.4,0.2-1,0.8-1c0.2,0,0.7,0.1,0.7,1.1c0,0.4-0.6,4.4-1,6.1c-0.3,1-0.5,1.2-1.4,1.6
		C87.5,37.4,83.8,37.6,81,37.6"/>
	<path fill="#000000" d="M116,2.7c-8.1,0-13.2,5.7-13.2,14.9c0,10.3,6,17.4,14.5,17.4c2.1,0,12.5-0.8,12.5-15.6
		C129.8,8,122.7,2.7,116,2.7 M116.1,37.6c-12.7,0-18.4-9.7-18.4-18.7c0-7.2,5.1-18.6,18.7-18.6c11.2,0,18.7,7.2,18.7,17.8
		C135,29.5,127.1,37.6,116.1,37.6"/>
	<path fill="#000000" d="M151.5,3.2c-1.3,0-2.6,0.1-3,0.3l-0.1,15.4c0.7,0.6,2.6,0.9,4.8,0.9c0.9,0,2.2-0.1,3.3-0.8
		c1.7-1.1,2.7-3.7,2.7-6.8C159.2,6.5,156.3,3.2,151.5,3.2 M171,36.9c-2.6,0-3.9-0.2-5.2-0.9c-1.9-1-3.5-3.1-5.8-6.2l-0.6-0.8
		c-1.1-1.5-2.3-3.1-3.3-4.5c-0.7-1-1.4-1.9-1.8-2.4c-0.1-0.1-0.2-0.1-0.3-0.1l-5.7-0.1l0.1,1.1c0,4.4,0,8.1,0.2,10.1
		c0.1,1.4,0.4,2.1,1.5,2.2c0.6,0.1,1.6,0.2,2,0.2c0.5,0,0.8,0.3,0.8,0.7c0,0.2-0.1,0.8-1.1,0.8c-2,0-4.2-0.1-5.2-0.1l-0.5,0
		c-0.9,0-3.2,0.1-4.4,0.1c-0.3,0-1.1,0-1.1-0.8c0-0.3,0.2-0.7,0.8-0.7c0.3,0,0.8-0.1,1.3-0.2c0.6-0.1,0.9-0.9,1.1-2.2
		c0.2-1.9,0.2-5.7,0.2-10v-8.2c0-7.2,0-8.6-0.1-10c-0.1-1.6-0.4-2-1.7-2.3c-0.3-0.1-1.1-0.1-1.5-0.1c-0.4,0-0.8-0.3-0.8-0.7
		c0-0.8,0.8-0.8,1.1-0.8c1.6,0,3.6,0.1,4.6,0.1l0.6,0c0.2,0,0.8,0,1.6,0c1.3,0,3-0.1,3.9-0.1c2.9,0,6.1,0.3,8.7,2.1
		c1.3,0.9,3.4,3.3,3.4,6.6c0,3.8-1.7,7.3-5.5,10.8l1.1,1.5c5.6,7.2,6.8,8.6,8.3,10.1c2.4,2.5,4.2,3,5.5,3.2c0.9,0.1,1.5,0.1,1.8,0.1
		c0.4,0,0.8,0.3,0.8,0.7c0,0.8-0.9,0.8-1.5,0.8H171z"/>
	<path fill="#000000" d="M195.6,37.2c-3,0-5.2-0.1-7-0.1l-0.9,0c-1.8-0.1-2.9-0.1-3.6-0.1c-0.1,0-0.9,0-1.8,0c-0.5,0-1,0-1.5,0.1
		c-0.4,0-0.9,0-1.2,0c-0.3,0-1.1,0-1.1-0.8c0-0.3,0.2-0.7,0.8-0.7c0.3,0,0.8-0.1,1.3-0.2c0.6-0.1,0.9-0.9,1-2.2
		c0.2-1.9,0.2-5.7,0.2-10V15c0-7.2,0-8.6-0.1-10c-0.1-1.6-0.4-2-1.7-2.3c-0.3-0.1-1.1-0.1-1.5-0.1c-0.4,0-0.8-0.3-0.8-0.7
		c0-0.8,0.9-0.8,1.1-0.8c1.1,0,2.3,0,3.4,0l1.9,0.1c0.4,0,9.6,0,10.6,0c1-0.1,1.6-0.2,1.9-0.2c0.3-0.2,0.5-0.2,0.7-0.2
		c0.1,0,0.6,0.1,0.6,0.8c0,0.2,0,0.4-0.1,0.6c-0.1,0.3-0.2,0.8-0.3,1.6c0,0.2,0,0.5-0.1,0.9c0,0.8-0.1,1.8-0.2,2.2
		c-0.1,0.7-0.5,0.8-0.7,0.8c-0.2,0-0.8-0.1-0.8-1c0-0.3-0.1-1.1-0.2-1.5c-0.2-0.5-0.5-1.1-3-1.3c-0.8-0.1-5.8-0.1-6.3-0.1l0.1,12.9
		c1.3,0,2.7,0,3.9,0c1.6,0,2.9,0,3.4-0.1c1.1-0.1,1.6-0.2,1.9-0.5c0.4-0.5,0.6-0.7,1-0.7c0.1,0,0.6,0,0.6,0.8c0,0.1,0,0.3-0.1,0.6
		c-0.1,0.4-0.2,1.1-0.3,2c-0.1,0.9-0.2,2.6-0.2,2.9c0,0.4,0,1.3-0.7,1.3c-0.4,0-0.7-0.3-0.7-0.8c0-0.5,0-0.9-0.2-1.4
		c-0.1-0.4-0.3-1.2-2.1-1.4c-1.2-0.1-5.8-0.2-6.6-0.2l0.1,4l0,2c0,2.2,0,5.2,0,5.9c0.1,2.9,0.5,3.4,5,3.4c1.2,0,3.2,0,4.3-0.5
		c1.1-0.5,1.5-1.3,1.9-3.1c0.1-0.4,0.2-1,0.8-1c0.7,0,0.7,0.8,0.7,1.1c0,0.4-0.4,3.6-0.6,4.6C198,37.2,197.4,37.2,195.6,37.2"/>
	<path fill="#000000" d="M3.1,46.9c0.2,0,0.4,0.1,0.6,0.1c2.5,0,3-1.7,3-2.3c0-0.6-0.3-1.2-0.7-1.6c-0.5-0.4-1.1-0.6-2.3-0.6
		c-0.2,0-0.3,0-0.5,0.1c-0.1,0.1-0.2,0.2-0.2,0.4V46.9z M1.9,45.5c0-1,0-1.9,0-2.3c0-0.5-0.2-0.7-0.5-0.7H0.8c-0.1,0-0.1,0-0.1-0.1
		v-0.3c0-0.1,0-0.1,0.1-0.1c0.1,0,0.5,0,1.7,0c0.8,0,2,0,2.3,0c1.1,0,2,0.3,2.6,0.8c0.5,0.4,0.7,1.1,0.7,1.6c0,1.7-0.8,2.4-2.5,2.7
		v0c0.3,0.1,0.5,0.4,0.6,0.5c0.2,0.2,1.1,1.6,1.2,1.8c0.1,0.1,0.9,1.4,1.2,1.6c0.3,0.2,0.6,0.2,1,0.2c0.1,0,0.1,0.1,0.1,0.1v0.3
		c0,0.1,0,0.1-0.1,0.1c-0.1,0-0.5,0-1.1,0c-0.4,0-0.9,0-1.1,0C7.3,51.7,7,51.2,6.9,51c-0.1-0.2-0.8-1.5-0.9-1.6
		c-0.1-0.1-0.7-1.1-0.9-1.3c-0.4-0.4-0.7-0.8-1.5-0.8c-0.1,0-0.3,0-0.5,0v0.8c0,0.8,0,2.3,0,2.5c0,0.3,0.1,0.5,0.3,0.5h0.9
		c0.1,0,0.1,0,0.1,0.1v0.3c0,0.1,0,0.1-0.2,0.1c-0.2,0-0.5,0-1.8,0c-1.2,0-1.6,0-1.7,0c-0.1,0-0.1,0-0.1-0.1v-0.3
		c0-0.1,0-0.1,0.1-0.1h0.6c0.3,0,0.5-0.1,0.5-0.5c0-1.4,0-2.6,0-3.9V45.5z"/>
	<path fill="#000000" d="M23.3,47.7c0.3,0,0.4-0.1,0.4-0.2c0-0.3-0.2-1.2-1.1-1.2c-0.6,0-1.2,0.4-1.4,1.4H23.3z M21.2,48.1
		c0,0.1,0,0.3,0,0.7c0,1.3,0.8,2.4,1.9,2.4c0.8,0,1.4-0.5,1.7-0.9c0-0.1,0.1-0.1,0.1-0.1l0.2,0.1c0,0,0.1,0.1,0,0.2
		c-0.2,0.5-1,1.5-2.2,1.5c-0.8,0-1.6-0.2-2.1-1c-0.5-0.7-0.6-1.2-0.6-2.2c0-0.5,0.1-1.5,0.9-2.2c0.6-0.6,1.3-0.7,2-0.7
		c1.6,0,2,1.5,2,2c0,0.2-0.2,0.2-0.4,0.2H21.2z"/>
	<path fill="#000000" d="M37,48.5c0,0.7,0.3,1.6,0.7,2.1c0.5,0.6,1,0.7,1.5,0.7c0.7,0,1-0.1,1.5-0.6c0,0,0.1,0,0.1,0l0.1,0.1
		c0.1,0.1,0.1,0.1,0,0.2c-0.4,0.5-1.3,1-2.2,1c-0.7,0-1.5-0.2-2.1-1c-0.5-0.7-0.6-1.2-0.6-1.9c0-1.6,1.1-3.2,2.9-3.2
		c1.4,0,1.9,0.8,1.9,1.1c0,0.3-0.2,0.5-0.5,0.5c-0.3,0-0.5-0.2-0.8-0.5c-0.3-0.6-0.6-0.6-0.9-0.6C37.8,46.3,37,47,37,48.5"/>
	<path fill="#000000" d="M52.6,44.3c0-0.8-0.2-1-0.7-1.2l-0.2-0.1c-0.1,0-0.1,0-0.1-0.1v-0.1c0-0.1,0-0.1,0.2-0.1l1.4-0.8
		c0.1-0.1,0.2-0.1,0.3-0.1c0.1,0,0.1,0.1,0.1,0.3c0,0.2,0,3,0,3.7v0.9h0.1c0.5-0.6,1.3-0.9,1.9-0.9c0.6,0,1,0.2,1.4,0.5
		c0.6,0.6,0.6,1.3,0.6,2v0.8c0,0.8,0,1.6,0,1.9c0,0.2,0.2,0.2,0.5,0.2h0.2c0.1,0,0.2,0,0.2,0.1v0.2c0,0.1,0,0.2-0.1,0.2
		c-0.1,0-0.5,0-1.3,0c-0.7,0-1.2,0-1.3,0c-0.1,0-0.1,0-0.1-0.1v-0.2c0-0.1,0-0.1,0.1-0.1h0.3c0.2,0,0.5,0,0.5-0.3c0-0.2,0-0.9,0-1.4
		v-1.1c0-0.8-0.1-1.3-0.5-1.7c-0.3-0.3-0.6-0.4-0.9-0.4c-0.4,0-0.9,0.1-1.3,0.6c-0.1,0.2-0.3,0.4-0.3,0.7v3c0,0.4,0,0.6,0.3,0.6h0.4
		c0.1,0,0.2,0,0.2,0.1v0.2c0,0.1,0,0.1-0.1,0.1c-0.1,0-0.7,0-1.3,0c-0.7,0-1.2,0-1.3,0c-0.1,0-0.1,0-0.1-0.1v-0.2
		c0-0.1,0.1-0.1,0.2-0.1h0.3c0.2,0,0.4-0.1,0.5-0.2c0-0.3,0-1.8,0-2.7V44.3z"/>
	<path fill="#000000" d="M71,50.1c0,1,0.5,1.2,0.7,1.2c0.3,0,0.7-0.1,0.9-0.2c0.1,0,0.1,0,0.2,0l0.1,0.1c0,0.1,0,0.1,0,0.1
		c-0.1,0.1-0.7,0.5-1.5,0.5c-0.7,0-1.3-0.6-1.3-1.2c0-0.6,0-1.8,0-2v-0.3c0-0.2,0-1.2,0-1.7h-0.8c-0.1,0-0.2-0.1-0.2-0.2
		c0-0.1,0.1-0.1,0.2-0.2c0.3-0.2,1.4-1.3,1.6-1.7c0-0.1,0.1-0.1,0.2-0.1c0.1,0,0.1,0.1,0.1,0.2l-0.1,1.4H73c0.1,0,0.1,0.1,0.1,0.1
		l-0.1,0.5c0,0.1,0,0.1-0.1,0.1H71c0,0.6,0,1.3,0,1.9V50.1z"/>
	<path fill="#000000" d="M84,51.5c-0.1,0-0.1-0.1-0.1-0.2L83.7,50c0-0.1,0-0.1,0.1-0.1l0.2,0c0.1,0,0.1,0,0.1,0.1l0.3,0.7
		c0.3,0.5,0.5,0.8,1.2,0.8c0.5,0,1.1-0.3,1.1-0.9c0-0.6-0.3-1-1.3-1.3c-0.8-0.2-1.6-0.7-1.6-1.7c0-0.9,0.9-1.7,1.9-1.7
		c0.7,0,1,0.2,1.3,0.3c0.2,0.1,0.2,0.2,0.2,0.2l0.2,1c0,0.1,0,0.1-0.1,0.1l-0.2,0.1c-0.1,0-0.1,0-0.1-0.1l-0.5-0.6
		c-0.2-0.3-0.4-0.5-1-0.5c-0.5,0-1.1,0.3-1.1,0.9c0,0.8,0.6,0.9,1.3,1.1c1,0.3,1.6,0.7,1.6,1.8c0,1.1-0.9,1.8-2.1,1.8
		C84.7,51.9,84.1,51.7,84,51.5"/>
	<path fill="#000000" d="M101.6,48.8c-0.5,0.4-1.8,0.6-1.8,1.8c0,0.5,0.3,0.8,0.7,0.8c0.4,0,1.1-0.5,1.1-0.8V48.8z M102.6,50.1
		c0,0.8,0.2,1,0.4,1c0.2,0,0.4-0.1,0.5-0.2c0.1-0.1,0.1-0.1,0.1-0.1l0.1,0.1c0,0,0.1,0.1,0,0.2c-0.1,0.2-0.4,0.7-1.1,0.7
		c-0.5,0-0.8-0.4-1-0.9h0c-0.3,0.3-0.7,0.6-1.4,0.8c-0.3,0.1-0.5,0.1-0.8,0.1c-0.3,0-0.8-0.3-0.8-1.1c0-0.6,0.3-1.2,1.4-1.7
		c0.6-0.3,1.3-0.6,1.5-0.8v-0.9c0-0.2,0-0.6-0.2-0.8c-0.1-0.2-0.4-0.3-0.8-0.3c-0.3,0-0.7,0.1-0.9,0.3c-0.2,0.2-0.1,0.4-0.1,0.6
		c0,0.5-0.2,0.8-0.7,0.8c-0.2,0-0.3-0.1-0.3-0.4c0-0.4,0.4-1,0.9-1.3c0.6-0.3,1.1-0.5,1.7-0.5c0.6,0,0.9,0.2,1.1,0.4
		c0.3,0.3,0.3,0.6,0.3,1v2.1V50.1z"/>
	<path fill="#000000" d="M120.1,51c0,0.2,0.1,0.3,0.3,0.3h0.4c0.1,0,0.2,0,0.2,0.1v0.2c0,0.1,0,0.2-0.1,0.2c-0.1,0-0.5,0-1.3,0
		c-0.7,0-1.1,0-1.2,0c-0.1,0-0.1,0-0.1-0.2v-0.2c0-0.1,0-0.1,0.2-0.1h0.4c0.2,0,0.3-0.1,0.3-0.3c0-0.4,0-0.8,0-1.1V48
		c0-0.5,0-0.9-0.4-1.2c-0.3-0.2-0.7-0.2-1-0.2c-0.2,0-0.7,0.1-1.1,0.5c-0.3,0.3-0.3,0.7-0.3,0.9v2.8c0,0.4,0,0.5,0.3,0.5h0.3
		c0.1,0,0.1,0,0.1,0.1v0.2c0,0.1,0,0.1-0.1,0.1c-0.1,0-0.5,0-1.2,0c-0.7,0-1.1,0-1.2,0c-0.1,0-0.1,0-0.1-0.1v-0.2
		c0-0.1,0-0.1,0.1-0.1h0.4c0.2,0,0.3,0,0.3-0.3v-3.2c0-0.4-0.2-0.6-0.6-0.8l-0.1-0.1c-0.1,0-0.1-0.1-0.1-0.1v-0.1
		c0-0.1,0.1-0.1,0.1-0.1l1.2-0.7c0.1-0.1,0.2-0.1,0.2-0.1c0.1,0,0.1,0.1,0.1,0.2l0.1,0.8h0c0.4-0.5,1.2-1,1.9-1
		c0.4,0,0.8,0.1,1.2,0.3c0.4,0.3,0.8,1,0.8,1.3V51z"/>
	<path fill="#000000" d="M137.9,50.3L137.9,50.3l1.2-3c0.2-0.5,0.1-0.8-0.2-0.8h-0.2c-0.1,0-0.1,0-0.1-0.1v-0.3c0-0.1,0-0.1,0.1-0.1
		c0.1,0,0.5,0,1.1,0c0.6,0,0.8,0,1,0c0.1,0,0.1,0,0.1,0.1v0.3c0,0.1,0,0.1-0.1,0.1h-0.3c-0.2,0-0.4,0.1-0.4,0.2
		c-0.2,0.3-1.9,4.6-2.1,5c-0.1,0.1-0.2,0.2-0.3,0.2c-0.1,0-0.2-0.1-0.2-0.3l-1.3-3.9H136l-1.7,3.9c-0.1,0.2-0.2,0.2-0.3,0.2
		c-0.1,0-0.2-0.1-0.2-0.3l-1.8-4.8c-0.1-0.3-0.2-0.4-0.6-0.4h-0.3c-0.1,0-0.1,0-0.1-0.1v-0.3c0-0.1,0-0.1,0.1-0.1c0.2,0,0.5,0,1.2,0
		c0.6,0,0.9,0,1.1,0c0.1,0,0.1,0,0.1,0.1v0.3c0,0.1,0,0.1-0.1,0.1h-0.1c-0.1,0-0.2,0.1-0.2,0.4l1.1,3.6h0.1l1.4-3.3
		c0-0.2,0-0.3-0.1-0.4c-0.1-0.1-0.2-0.1-0.4-0.1H135c-0.1,0-0.1,0-0.1-0.1v-0.3c0-0.1,0-0.1,0.1-0.1c0.1,0,0.5,0,1.2,0
		c0.6,0,0.9,0,1,0c0.1,0,0.1,0,0.1,0.1v0.3c0,0.1,0,0.1-0.1,0.1h-0.3c-0.1,0-0.2,0.1-0.2,0.4L137.9,50.3z"/>
	<path fill="#000000" d="M155.4,43.7c0,0.4-0.3,0.6-0.6,0.6c-0.2,0-0.7-0.1-0.7-0.7c0-0.2,0.2-0.6,0.7-0.6
		C155.1,43,155.4,43.3,155.4,43.7 M154.2,48.8c-0.5,0.4-1.8,0.6-1.8,1.8c0,0.5,0.3,0.8,0.7,0.8c0.4,0,1.1-0.5,1.1-0.8V48.8z
		 M153.1,43.7c0,0.4-0.3,0.6-0.6,0.6c-0.2,0-0.7-0.1-0.7-0.7c0-0.2,0.1-0.6,0.7-0.6C152.8,43,153.1,43.3,153.1,43.7 M155.2,50.1
		c0,0.8,0.2,1,0.4,1c0.2,0,0.4-0.1,0.5-0.2c0.1-0.1,0.1-0.1,0.1-0.1l0.1,0.1c0,0,0.1,0.1,0,0.2c-0.1,0.2-0.4,0.7-1.1,0.7
		c-0.5,0-0.8-0.4-1-0.9h0c-0.3,0.3-0.7,0.6-1.4,0.8c-0.3,0.1-0.5,0.1-0.8,0.1c-0.3,0-0.8-0.3-0.8-1.1c0-0.6,0.3-1.2,1.4-1.7
		c0.6-0.3,1.3-0.6,1.5-0.8v-0.9c0-0.2,0-0.6-0.2-0.8c-0.1-0.2-0.4-0.3-0.8-0.3c-0.3,0-0.7,0.1-0.9,0.3c-0.2,0.2-0.1,0.4-0.1,0.6
		c0,0.5-0.2,0.8-0.7,0.8c-0.2,0-0.3-0.1-0.3-0.4c0-0.4,0.4-1,0.9-1.3c0.6-0.3,1.1-0.5,1.7-0.5c0.6,0,0.9,0.2,1.1,0.4
		c0.3,0.3,0.3,0.6,0.3,1V50.1z"/>
	<path fill="#000000" d="M168.8,47.7c0,0.7,0,2.8,0,3.2c0,0.2,0.1,0.4,0.4,0.4h0.6c0.1,0,0.2,0,0.2,0.1v0.2c0,0.1,0,0.1-0.1,0.1
		c-0.1,0-0.7,0-1.5,0c-0.9,0-1.4,0-1.5,0c-0.1,0-0.1-0.1-0.1-0.1v-0.2c0-0.1,0-0.1,0.2-0.1h0.7c0.2,0,0.3-0.1,0.3-0.3
		c0-0.4,0-2.8,0-3.6v-0.9c0-1,0-2.2,0-2.6c0-0.5-0.2-0.7-0.7-0.8l-0.3-0.1c-0.1,0-0.1,0-0.1-0.1v-0.1c0,0,0-0.1,0.1-0.1
		c0.5-0.2,1.1-0.5,1.6-0.8c0.1-0.1,0.2-0.1,0.3-0.1c0.1,0,0.1,0.1,0.1,0.2c0,0.8-0.1,3.6-0.1,4.4V47.7z"/>
	<path fill="#000000" d="M182.4,50.1c0,1,0.5,1.2,0.7,1.2c0.3,0,0.7-0.1,0.9-0.2c0.1,0,0.1,0,0.2,0l0.1,0.1c0,0.1,0,0.1,0,0.1
		c-0.1,0.1-0.7,0.5-1.5,0.5c-0.7,0-1.3-0.6-1.3-1.2c0-0.6,0-1.8,0-2v-0.3c0-0.2,0-1.2,0-1.7h-0.8c-0.1,0-0.2-0.1-0.2-0.2
		c0-0.1,0.1-0.1,0.2-0.2c0.3-0.2,1.4-1.3,1.6-1.7c0-0.1,0.1-0.1,0.2-0.1c0.1,0,0.1,0.1,0.1,0.2l-0.1,1.4h1.9c0.1,0,0.1,0.1,0.1,0.1
		l-0.1,0.5c0,0.1,0,0.1-0.1,0.1h-1.8c0,0.6,0,1.3,0,1.9V50.1z"/>
	<path fill="#000000" d="M198.3,47.7c0.3,0,0.4-0.1,0.4-0.2c0-0.3-0.2-1.2-1.1-1.2c-0.6,0-1.2,0.4-1.4,1.4H198.3z M196.1,48.1
		c0,0.1,0,0.3,0,0.7c0,1.3,0.8,2.4,1.9,2.4c0.8,0,1.4-0.5,1.7-0.9c0-0.1,0.1-0.1,0.1-0.1l0.2,0.1c0,0,0.1,0.1,0,0.2
		c-0.2,0.5-1,1.5-2.2,1.5c-0.8,0-1.6-0.2-2.1-1c-0.5-0.7-0.6-1.2-0.6-2.2c0-0.5,0.1-1.5,0.9-2.2c0.6-0.6,1.3-0.7,2-0.7
		c1.6,0,2,1.5,2,2c0,0.2-0.2,0.2-0.4,0.2H196.1z"/>
</g>
</svg>
