<?xml version="1.0" encoding="UTF-8"?>
<!-- Generator: Adobe Illustrator 13.0.2, SVG Export Plug-In . SVG Version: 6.00 Build 14948)  -->
<!DOCTYPE svg PUBLIC "-//W3C//DTD SVG 1.1//EN" "http://www.w3.org/Graphics/SVG/1.1/DTD/svg11.dtd">
<svg version="1.1" id="Layer_1" xmlns="http://www.w3.org/2000/svg" xmlns:xlink="http://www.w3.org/1999/xlink" x="0px" y="0px" width="302px" height="129px" viewBox="-14.195 0.083 302 129" enable-background="new -14.195 0.083 302 129" xml:space="preserve">
<g>
	<g>
		<path fill="#000000" d="M5.625,61.268H7.1c1.241,5.375,4.278,8.062,9.111,8.062c1.964,0,3.692-0.58,5.183-1.74    c1.489-1.174,2.252-2.595,2.287-4.264c0.03-1.485-0.494-2.624-1.572-3.416c-1.063-0.806-2.651-1.521-4.764-2.143l-4.805-1.357    c-1.89-0.552-3.417-1.521-4.58-2.907c-1.163-1.385-1.723-3.118-1.68-5.197c0.05-2.391,0.951-4.32,2.705-5.792    c1.771-1.471,3.952-2.205,6.546-2.205c2.803,0,5.171,0.721,7.107,2.162l1.848-1.738h0.894l-0.167,8.062h-1.473    c-0.246-2.149-1.127-3.918-2.645-5.305c-1.502-1.385-3.422-2.078-5.757-2.078c-1.659,0-3.11,0.474-4.354,1.421    c-1.228,0.933-1.855,2.086-1.883,3.458c-0.022,1.033,0.243,1.846,0.795,2.44c0.566,0.594,1.492,1.061,2.773,1.399l6.606,1.824    c2.482,0.679,4.32,1.783,5.514,3.31c1.192,1.528,1.766,3.409,1.719,5.644c-0.057,2.758-1.07,5.036-3.04,6.831    c-1.954,1.797-4.494,2.693-7.619,2.695c-1.611,0-3.087-0.257-4.431-0.766c-1.342-0.521-2.258-1.003-2.748-1.441L6.338,70.05H5.444    L5.625,61.268z"/>
		<path fill="#000000" d="M42.418,59.771c-0.459,1.16-1.178,2.058-2.158,2.694c-0.979,0.637-2.202,0.954-3.668,0.954    c-2.143,0-3.562-0.269-4.26-0.806c-0.682-0.552-1.017-1.464-1.007-2.737l0.006-0.254l0.25-12.113H28.44l0.026-1.316h3.142    l0.113-5.431l-0.006,0.255c1.063,0,2.829-0.085,5.298-0.255L36.9,46.193h4.639l-0.026,1.316h-4.64l-0.253,12.22    c-0.028,1.33,0.587,1.995,1.843,1.995c0.758,0,1.365-0.205,1.825-0.615c0.477-0.425,0.858-1.012,1.148-1.761L42.418,59.771z"/>
	</g>
	<polygon fill="#000000" points="28.556,65.918 41.701,65.918 41.652,68.272 28.507,68.272  "/>
	<g>
		<path fill="#000000" d="M244.602,28.605c1.739,2.102,12.479,2.026,18.955-2.232c-5.86,6.652-9.847,17.209-10.92,20.825    c29.771-16.581,13.812,45.691-8.078,51.264c-5.027,1.279-28.862,1.841,7.825-42.264c0,0-6.364,10.629-9.766,20.277    c-16.5,63.618,56.092-58.443,0.25-20.421c2.333-4.428,1.962-8.138,8.676-22.261c0,0-2.155,0.33-6.162-0.36    C228.184,76.34,222.127,53.675,221.69,50.31c-5.739,8.528-13.072,1.679-7.299,0.523c0,0,3.873,3.732,6.892-5.083    c0.175-1.879,1.366-17.048,3.981-25.223c0.627-2.116,5.405-16.497,15.914-17.004c2.361,0,4.42,2.264,4.34,4.526    c-0.701,16.028-12.652,28.812-19.441,36.883c-0.2,2.148-0.271,3.363,0.99,5.816C231.409,59.074,244.602,28.605,244.602,28.605     M226.334,40.096c-0.627,5.238,18.625-27.5,8.366-30.672C234.467,9.424,229.102,16.978,226.334,40.096"/>
		<path fill="#000000" d="M166.19,52.807c-0.608,2.002-3.644,16.633-3.476,19.167c-0.102,8.781,7.409,2.204,8.447,0.684    c0.719-5.252,0.756-17.491,1.601-22.529c0.625-5.592,1.621-12.521,3.111-17.182c0.646-2.182,4.62-16.524,15.45-17.047    c4.488-0.563,5.132,8.077,5.051,10.41c-0.387,8.825-7.245,15.983-12.438,22.805c0.107-0.056,7.371-5.187,7.832,1.736    c0.324,3.244-3.674,17.315-2.261,17.146c0.31-0.513,2.792-1.632,7.741-18.284l6.909-4.667c-6.316,7.822,0.533,33.451,7.226,8.106    c-2.736-0.874-5.91-3.134-7.105-5.055c-1.729-2.779,11.715-16.221,14.455-8.947c0.744,1.976-1.766,11.542-1.766,11.542    c-6.269,22.24-16.224,18.08-18.31,16.854c-1.859-1.08-1.865-4.678-2.33-6.371c-8.566,23.099-16.965,19.149-10.903-2.753    c1.235-5.147-4.459-3.686-6.32-1.959c-2.649,2.611-3.047,17.111-3.763,21.734l-5.137,2.395c0.249-2.206,0.249-2.515,0.471-4.521    c0,0-7.52,6.851-13.27,6.556c-1.68-0.572-2.039-2.451-2.125-4.167c-0.168-2.534,2.572-11.852,2.717-12.915l-1.572-0.089    c-14.627,28.127-34.93,34.009-31.811,16.227c-0.4,0.125-2.519,0.256-3.337,0.115c-23.368,48.133-26.417,4.658-17.229-25.309    c0.702-2.37,6.055-18.47,17.818-19.037c2.646,0,4.948,2.533,4.86,5.066c-0.785,17.946-13.659,31.322-21.262,40.357    c-1.468,25.317,6.635,10.743,11.839-4.249c-3.483-5.148,7.1-8.977,7.1-8.977c-4.969,7.492,0.707,6.703,1.232,6.969    c3.059-16.154,10.966-19.743,15.923-18.296c9.68,12.844-11.206,22.156-11.206,22.156c-1.486,14.825,14.408,1.514,22.211-15.481    c-0.663-0.099-0.907-0.221-1.575-0.524c-2.769-1.227-2.886-4.627-2.551-4.898c0,0,4.543-5.344,6.129-5.344    c1.029,1.103,3.389,5.555,2.935,8.42c0.313,0.046,0.626,0.07,0.936,0.069c0.299-1.597,1.063-4.926,1.91-6.728L166.19,52.807z     M177.28,52.352c-0.653,5.465,19.434-28.692,8.729-32.002C185.766,20.35,180.167,28.231,177.28,52.352 M106.073,77.115    c-0.711,5.937,21.108-31.166,9.481-34.761C115.291,42.354,109.209,50.916,106.073,77.115 M214.444,38.282    c-0.526,0.66-10.599,9.01-2.914,12.66C214.342,46.328,214.301,38.767,214.444,38.282 M130.803,74.827    c0.747-0.833,13.423-7.018,4.886-14.775C131.375,64.678,131.027,74.2,130.803,74.827"/>
		<path fill="#000000" d="M73.238,120.449c7.194-7.48,36.197-66.923,2.21-82.045c-1.277-0.403-19.005,18.484-19.941,28.393    L44.995,72.69c9.91-33.89,36.793-41.203,40.593-40.002c26.375,9.648,8.514,98.479-23.364,92.922    c-4.589-1.272-8.384-5.645-9.199-10.687c-1.837-11.409-3.416-36.292,14.152-51.129c12.274-9.865,12.264-8.129,12.264-8.129    C53.463,79.978,62.601,131.179,73.238,120.449"/>
	</g>
	<polygon fill="#000000" points="244.416,59.171 92.116,114.606 87.564,124.167  "/>
</g>
</svg>
